<?xml version="1.0"?>
<svg xmlns="http://www.w3.org/2000/svg" xmlns:xlink="http://www.w3.org/1999/xlink" xmlns:svgjs="http://svgjs.com/svgjs" version="1.1" width="512" height="512" x="0" y="0" viewBox="0 0 512 512" style="enable-background:new 0 0 512 512" xml:space="preserve"><g>
<g xmlns="http://www.w3.org/2000/svg">
	<path d="M490.667,234.667H448V192c0-11.782-9.551-21.333-21.333-21.333c-11.782,0-21.333,9.551-21.333,21.333v42.667h-42.667   c-11.782,0-21.333,9.551-21.333,21.333c0,11.782,9.551,21.333,21.333,21.333h42.667V320c0,11.782,9.551,21.333,21.333,21.333   c11.782,0,21.333-9.551,21.333-21.333v-42.667h42.667c11.782,0,21.333-9.551,21.333-21.333   C512,244.218,502.449,234.667,490.667,234.667z" fill="#2c9196" data-original="#000000"/>
	<circle cx="192" cy="128" r="128" fill="#2c9196" data-original="#000000"/>
	<path d="M192,298.667c-105.99,0.118-191.882,86.01-192,192C0,502.449,9.551,512,21.333,512h341.333   c11.782,0,21.333-9.551,21.333-21.333C383.882,384.677,297.99,298.784,192,298.667z" fill="#2c9196" data-original="#000000"/>
</g>















</g></svg>
