<?xml version="1.0"?>
<svg xmlns="http://www.w3.org/2000/svg" xmlns:xlink="http://www.w3.org/1999/xlink" xmlns:svgjs="http://svgjs.com/svgjs" version="1.1" width="512" height="512" x="0" y="0" viewBox="0 0 24 24" style="enable-background:new 0 0 512 512" xml:space="preserve"><g><path xmlns="http://www.w3.org/2000/svg" d="m7.5 13a4.5 4.5 0 1 1 4.5-4.5 4.505 4.505 0 0 1 -4.5 4.5zm0-7a2.5 2.5 0 1 0 2.5 2.5 2.5 2.5 0 0 0 -2.5-2.5zm7.5 17v-.5a7.5 7.5 0 0 0 -15 0v.5a1 1 0 0 0 2 0v-.5a5.5 5.5 0 0 1 11 0v.5a1 1 0 0 0 2 0zm9-5a7 7 0 0 0 -11.667-5.217 1 1 0 1 0 1.334 1.49 5 5 0 0 1 8.333 3.727 1 1 0 0 0 2 0zm-6.5-9a4.5 4.5 0 1 1 4.5-4.5 4.505 4.505 0 0 1 -4.5 4.5zm0-7a2.5 2.5 0 1 0 2.5 2.5 2.5 2.5 0 0 0 -2.5-2.5z" fill="#2c9196" data-original="#000000"/></g></svg>
